<svg width="303" height="64" viewBox="0 0 303 64" fill="none" xmlns="http://www.w3.org/2000/svg">
<g clip-path="url(#clip0_92_63)">
<path d="M278.063 38.142L277.673 40.189C277.571 40.198 277.316 40.215 276.917 40.223C276.517 40.232 276.169 40.24 275.88 40.24C272.899 40.24 270.639 39.782 269.118 38.856C267.589 37.938 266.825 36.52 266.825 34.616C266.825 33.419 266.833 32.136 266.859 30.769C266.884 29.401 266.893 27.702 266.893 25.68H263.223V23.786H267.088V19.955H270.257V23.785H278.072V25.68H270.257C270.257 25.91 270.248 26.58 270.223 27.702C270.202 28.5315 270.191 29.3612 270.189 30.191V34.201C270.189 35.602 270.698 36.613 271.718 37.233C272.737 37.853 274.309 38.159 276.432 38.159H278.063V38.142ZM302.265 24.482C299.26 29.5036 296.273 34.5357 293.303 39.578C290.169 44.904 288.495 47.733 288.291 48.081L285.276 47.241L289.786 40.156C286.849 34.9361 283.856 29.7481 280.807 24.593L284.069 23.523C285.66 26.5697 287.288 29.5966 288.954 32.603C290.61 35.593 291.485 37.165 291.57 37.318H291.613C291.698 37.208 292.53 35.747 294.102 32.926C295.673 30.106 297.389 26.996 299.25 23.59L302.248 24.5L302.265 24.482ZM109.049 6.762C109.946 6.762 110.806 6.40579 111.44 5.77173C112.074 5.13767 112.43 4.2777 112.43 3.381C112.43 2.4843 112.074 1.62433 111.44 0.990272C110.806 0.356211 109.946 0 109.049 0C108.152 0 107.292 0.356211 106.658 0.990272C106.024 1.62433 105.668 2.4843 105.668 3.381C105.668 4.2777 106.024 5.13767 106.658 5.77173C107.292 6.40579 108.152 6.762 109.049 6.762ZM97.8189 6.558C98.5489 6.558 99.249 6.26801 99.7652 5.75181C100.281 5.23562 100.571 4.53551 100.571 3.8055C100.571 3.07549 100.281 2.37538 99.7652 1.85919C99.249 1.34299 98.5489 1.053 97.8189 1.053C97.0889 1.053 96.3888 1.34299 95.8726 1.85919C95.3564 2.37538 95.0664 3.07549 95.0664 3.8055C95.0664 4.53551 95.3564 5.23562 95.8726 5.75181C96.3888 6.26801 97.0889 6.558 97.8189 6.558Z" fill="#222222"/>
<path d="M289.634 40.1475H162.261V41.2855H289.634V40.1475Z" fill="#EE87B4"/>
<path d="M150.504 4.42578H149.501V56.0318H150.504V4.42578ZM256.13 21.1268C257.19 21.1268 258.05 20.2968 258.05 19.2748C258.05 18.2518 257.19 17.4228 256.13 17.4228C255.07 17.4228 254.21 18.2518 254.21 19.2748C254.21 20.2978 255.07 21.1268 256.13 21.1268ZM218.268 21.1268C219.328 21.1268 220.188 20.2968 220.188 19.2748C220.188 18.2518 219.328 17.4228 218.268 17.4228C217.208 17.4228 216.348 18.2518 216.348 19.2748C216.348 20.2978 217.208 21.1268 218.268 21.1268ZM164.028 21.1268C165.088 21.1268 165.948 20.2968 165.948 19.2748C165.948 18.2518 165.088 17.4228 164.028 17.4228C162.967 17.4228 162.108 18.2518 162.108 19.2748C162.108 20.2978 162.967 21.1268 164.028 21.1268ZM165.71 40.1468H162.261C162.278 39.9768 162.295 38.9148 162.312 36.9618C162.338 35.0158 162.346 33.4018 162.346 32.1278C162.346 31.0148 162.346 29.7998 162.338 28.4668C162.338 27.1328 162.304 25.5778 162.261 23.7938H165.71C165.685 25.3488 165.659 26.7938 165.634 28.1438C165.608 29.4938 165.6 30.7008 165.6 31.7538C165.6 34.2598 165.617 36.2738 165.651 37.7938L165.702 40.1388L165.71 40.1468ZM192.036 40.1468H188.587C188.604 39.8498 188.621 38.8468 188.638 37.1568C188.663 35.4668 188.672 34.4208 188.672 34.0218C188.672 33.4618 188.672 32.6368 188.663 31.5418C188.663 30.4458 188.646 29.6468 188.629 29.1458C188.587 27.9058 188.264 27.0218 187.669 26.4788C187.075 25.9428 186.038 25.6718 184.569 25.6718C183.685 25.6718 182.581 25.8668 181.272 26.2488C179.964 26.6398 178.639 27.1328 177.297 27.7358C177.297 27.8548 177.297 28.4918 177.271 29.6558C177.246 30.8198 177.246 31.8808 177.246 32.8408C177.246 34.0898 177.263 35.6018 177.297 37.3608C177.331 39.1278 177.348 40.0528 177.348 40.1378H173.899C173.899 40.0618 173.916 39.3988 173.941 38.1588C173.967 36.9188 173.984 35.0668 173.984 32.6118C173.984 31.4818 173.984 30.1568 173.975 28.6358C173.975 27.1158 173.941 25.5018 173.899 23.7938H177.305L177.28 25.6538L177.305 25.6888C179.344 24.8308 181.043 24.2268 182.402 23.8878C183.761 23.5478 184.891 23.3778 185.792 23.3778C187.652 23.3778 189.147 23.8108 190.277 24.6778C191.407 25.5438 191.968 26.7328 191.968 28.2368C191.968 29.5968 191.959 30.7688 191.934 31.7538C191.912 32.5523 191.901 33.351 191.9 34.1498C191.9 35.1258 191.917 36.3498 191.951 37.8278C191.985 39.2978 192.002 40.0698 192.002 40.1468H192.036ZM212.525 18.5358H211.438C210.07 18.5358 208.991 18.6288 208.21 18.8078C207.45 18.9759 206.731 19.2934 206.095 19.7418C205.611 20.0728 205.245 20.5318 204.99 21.1178C204.73 21.7359 204.599 22.4011 204.608 23.0718V23.7938H212.024V25.6888H204.608C204.608 29.1788 204.617 32.4158 204.642 35.4068C204.668 38.3968 204.676 39.9768 204.676 40.1468H201.227C201.227 39.9768 201.244 38.4568 201.27 35.6018C201.295 32.7388 201.312 29.4428 201.312 25.6888H197.014V23.7938H201.312V23.0038C201.312 22.0608 201.482 21.2118 201.813 20.4638C202.145 19.7168 202.739 19.0198 203.58 18.3568C204.311 17.7968 205.279 17.3468 206.485 16.9898C207.692 16.6328 209.178 16.4548 210.937 16.4548H212.118L212.534 18.5188L212.525 18.5358ZM219.992 40.1468H216.543C216.56 39.9768 216.577 38.9148 216.594 36.9618C216.62 35.0158 216.628 33.4018 216.628 32.1278C216.628 31.0148 216.628 29.7998 216.62 28.4668C216.62 27.1328 216.586 25.5778 216.543 23.7938H219.992C219.967 25.3488 219.941 26.7938 219.916 28.1438C219.89 29.4938 219.882 30.7008 219.882 31.7538C219.882 34.2598 219.899 36.2738 219.933 37.7938L219.984 40.1388L219.992 40.1468ZM246.309 40.1468H242.861C242.878 39.8498 242.895 38.8468 242.912 37.1568C242.937 35.4668 242.945 34.4208 242.945 34.0218C242.945 33.4618 242.945 32.6368 242.937 31.5418C242.937 30.4458 242.92 29.6468 242.903 29.1458C242.861 27.9058 242.538 27.0218 241.943 26.4788C241.348 25.9428 240.312 25.6718 238.842 25.6718C237.959 25.6718 236.855 25.8668 235.546 26.2488C234.238 26.6398 232.913 27.1328 231.571 27.7358C231.571 27.8548 231.571 28.4918 231.545 29.6558C231.52 30.8198 231.52 31.8808 231.52 32.8408C231.52 34.0898 231.537 35.6018 231.571 37.3608C231.605 39.1278 231.622 40.0528 231.622 40.1378H228.173C228.173 40.0618 228.19 39.3988 228.215 38.1588C228.241 36.9188 228.258 35.0668 228.258 32.6118C228.258 31.4818 228.258 30.1568 228.249 28.6358C228.249 27.1158 228.215 25.5018 228.173 23.7938H231.579L231.554 25.6538L231.579 25.6888C233.618 24.8308 235.317 24.2268 236.676 23.8878C238.035 23.5478 239.165 23.3778 240.066 23.3778C241.926 23.3778 243.421 23.8108 244.551 24.6778C245.681 25.5438 246.241 26.7328 246.241 28.2368C246.241 29.5968 246.233 30.7688 246.208 31.7538C246.186 32.5523 246.175 33.351 246.174 34.1498C246.174 35.1258 246.191 36.3498 246.225 37.8278C246.258 39.2978 246.275 40.0698 246.275 40.1468H246.309ZM257.854 40.1468H254.405C254.422 39.9768 254.439 38.9148 254.456 36.9618C254.482 35.0158 254.49 33.4018 254.49 32.1278C254.49 31.0148 254.49 29.7998 254.482 28.4668C254.482 27.1328 254.448 25.5778 254.405 23.7938H257.854C257.829 25.3488 257.803 26.7938 257.778 28.1438C257.752 29.4938 257.744 30.7008 257.744 31.7538C257.744 34.2598 257.761 36.2738 257.795 37.7938L257.846 40.1388L257.854 40.1468Z" fill="#222222"/>
<path d="M64.026 39.6203H76.326C74.5854 41.0268 72.4138 41.7916 70.176 41.7863C67.9381 41.7916 65.7666 41.0268 64.026 39.6203ZM60.866 35.0923H79.478C79.0485 36.3825 78.3544 37.5688 77.44 38.5753H62.905C61.9902 37.5689 61.2957 36.3826 60.866 35.0923ZM79.988 31.9663C79.988 32.8663 79.861 33.7503 79.631 34.5743H60.713C60.4768 33.725 60.3567 32.8477 60.356 31.9663C60.356 26.5463 64.748 22.1553 70.176 22.1553C71.4647 22.1544 72.7409 22.4075 73.9317 22.9002C75.1225 23.3929 76.2045 24.1155 77.1158 25.0267C78.0271 25.9379 78.7498 27.0199 79.2426 28.2106C79.7355 29.4014 79.9887 30.6776 79.988 31.9663Z" fill="#EE87B4"/>
<path d="M89.5702 43.367H78.0252C78.78 42.6018 79.6794 41.9944 80.6712 41.5801C81.663 41.1658 82.7273 40.953 83.8022 40.954C86.0622 40.954 88.1002 41.88 89.5702 43.367ZM91.7872 47.622H75.8102C75.9843 46.6344 76.3447 45.6889 76.8722 44.836H90.7182C91.2478 45.6879 91.6083 46.6338 91.7802 47.622H91.7872ZM90.3002 53.942C89.6705 54.7821 88.8865 55.4945 87.9902 56.041H79.5972C78.6958 55.4973 77.908 54.7846 77.2772 53.942H90.3002ZM91.9152 49.38C91.8815 50.2055 91.7269 51.0215 91.4562 51.802H76.1482C75.8715 51.0231 75.7141 50.2069 75.6812 49.381H91.9231L91.9152 49.38ZM97.5642 62.93H104.793C103.704 63.5952 102.451 63.9451 101.174 63.941C99.8982 63.9415 98.6465 63.5922 97.5552 62.931L97.5642 62.93ZM107.911 58.76C107.817 59.125 107.681 59.481 107.537 59.821H94.8282C94.6736 59.4784 94.5488 59.123 94.4552 58.759H107.919L107.911 58.76ZM105.812 51.802H96.5442C97.8174 50.6563 99.4703 50.0235 101.183 50.026C102.896 50.0237 104.548 50.6565 105.821 51.802H105.812ZM108.072 56.032H94.2932C94.3903 55.3026 94.6058 54.594 94.9312 53.934H107.435C107.758 54.58 107.97 55.284 108.072 56.032ZM125.325 51.802H113.211C113.617 50.8669 114.233 50.0384 115.012 49.381H123.524C124.303 50.0381 124.919 50.8673 125.325 51.802ZM124.238 58.76C123.888 59.1619 123.488 59.5183 123.049 59.821H115.471C115.039 59.5131 114.643 59.1568 114.291 58.759H124.247L124.238 58.76ZM125.861 54.427C125.862 54.971 125.796 55.513 125.665 56.041H112.863C112.733 55.5129 112.667 54.9709 112.668 54.427C112.668 54.265 112.668 54.104 112.693 53.942H125.844C125.861 54.104 125.869 54.265 125.869 54.427H125.861ZM124.926 44.836H137.167C136.753 45.9256 136.059 46.8866 135.154 47.622H126.939C126.037 46.8848 125.343 45.9244 124.926 44.836ZM136.241 38.567H125.869C126.477 37.769 127.261 37.1222 128.16 36.6769C129.059 36.2317 130.048 36 131.051 36C132.055 36.0008 133.045 36.2326 133.945 36.6776C134.845 37.1226 135.631 37.7697 136.241 38.567ZM137.583 42.542C137.583 42.814 137.566 43.094 137.532 43.366H124.569C124.535 43.0927 124.518 42.8175 124.518 42.542C124.516 41.5276 124.752 40.5268 125.206 39.62H136.895C137.35 40.5268 137.585 41.5276 137.583 42.542Z" fill="#222222"/>
<path d="M134.738 33.3931C136.227 33.3931 137.655 32.8015 138.708 31.7485C139.761 30.6955 140.353 29.2673 140.353 27.7781C140.353 26.2889 139.761 24.8607 138.708 23.8077C137.655 22.7547 136.227 22.1631 134.738 22.1631C133.249 22.1631 131.821 22.7547 130.768 23.8077C129.715 24.8607 129.123 26.2889 129.123 27.7781C129.123 29.2673 129.715 30.6955 130.768 31.7485C131.821 32.8015 133.249 33.3931 134.738 33.3931Z" fill="#EE87B4"/>
<path d="M130.38 19.759C131.585 19.759 132.741 19.2803 133.593 18.4281C134.445 17.5759 134.924 16.4201 134.924 15.215C134.924 14.0099 134.445 12.8541 133.593 12.0019C132.741 11.1497 131.585 10.671 130.38 10.671C129.175 10.671 128.019 11.1497 127.167 12.0019C126.315 12.8541 125.836 14.0099 125.836 15.215C125.836 16.4201 126.315 17.5759 127.167 18.4281C128.019 19.2803 129.175 19.759 130.38 19.759ZM120.585 11.29C121.112 11.3019 121.637 11.2082 122.127 11.0146C122.618 10.821 123.065 10.5312 123.442 10.1624C123.819 9.79363 124.119 9.35318 124.324 8.86696C124.528 8.38073 124.634 7.85852 124.634 7.331C124.634 6.80348 124.528 6.28127 124.324 5.79504C124.119 5.30882 123.819 4.86837 123.442 4.49957C123.065 4.13077 122.618 3.84105 122.127 3.64741C121.637 3.45378 121.112 3.36015 120.585 3.372C119.55 3.39525 118.566 3.82258 117.842 4.5625C117.119 5.30242 116.714 6.29615 116.714 7.331C116.714 8.36585 117.119 9.35958 117.842 10.0995C118.566 10.8394 119.55 11.2667 120.585 11.29ZM88.6608 10.168C89.1947 10.168 89.7067 9.95592 90.0842 9.57841C90.4617 9.2009 90.6738 8.68888 90.6738 8.155C90.6738 7.62112 90.4617 7.1091 90.0842 6.73159C89.7067 6.35408 89.1947 6.142 88.6608 6.142C88.1269 6.142 87.6149 6.35408 87.2374 6.73159C86.8599 7.1091 86.6478 7.62112 86.6478 8.155C86.6478 8.68888 86.8599 9.2009 87.2374 9.57841C87.6149 9.95592 88.1269 10.168 88.6608 10.168ZM81.0928 15.741C81.4577 15.741 81.8077 15.596 82.0658 15.338C82.3238 15.0799 82.4688 14.7299 82.4688 14.365C82.4688 14.0001 82.3238 13.6501 82.0658 13.392C81.8077 13.134 81.4577 12.989 81.0928 12.989C80.7279 12.989 80.3779 13.134 80.1198 13.392C79.8618 13.6501 79.7168 14.0001 79.7168 14.365C79.7168 14.7299 79.8618 15.0799 80.1198 15.338C80.3779 15.596 80.7279 15.741 81.0928 15.741ZM56.5598 22.987C57.6262 22.9869 58.6823 22.7768 59.6675 22.3686C60.6528 21.9605 61.548 21.3622 62.3021 20.6081C63.0561 19.8539 63.6542 18.9586 64.0623 17.9733C64.4704 16.988 64.6803 15.932 64.6803 14.8655C64.6802 13.799 64.4701 12.743 64.0619 11.7578C63.6537 10.7725 63.0555 9.87729 62.3013 9.12323C61.5472 8.36917 60.6519 7.77104 59.6666 7.36298C58.6813 6.95493 57.6252 6.74493 56.5588 6.745C54.405 6.745 52.3394 7.6006 50.8164 9.12359C49.2934 10.6466 48.4378 12.7122 48.4378 14.866C48.4378 17.0198 49.2934 19.0854 50.8164 20.6084C52.3394 22.1314 54.405 22.987 56.5588 22.987H56.5598ZM39.1778 13.915C40.0915 13.915 40.9962 13.735 41.8403 13.3854C42.6844 13.0357 43.4514 12.5233 44.0975 11.8772C44.7435 11.2311 45.256 10.4641 45.6057 9.62002C45.9553 8.7759 46.1353 7.87117 46.1353 6.9575C46.1353 6.04383 45.9553 5.1391 45.6057 4.29498C45.256 3.45086 44.7435 2.68387 44.0975 2.0378C43.4514 1.39174 42.6844 0.879255 41.8403 0.529608C40.9962 0.179961 40.0915 -1.36148e-08 39.1778 0C37.3325 2.74963e-08 35.5629 0.73302 34.2581 2.0378C32.9533 3.34259 32.2203 5.11226 32.2203 6.9575C32.2203 8.80274 32.9533 10.5724 34.2581 11.8772C35.5629 13.182 37.3325 13.915 39.1778 13.915ZM21.0928 16.106C22.8411 16.106 24.5178 15.4115 25.754 14.1752C26.9903 12.939 27.6848 11.2623 27.6848 9.514C27.6848 7.76569 26.9903 6.08899 25.754 4.85275C24.5178 3.61651 22.8411 2.922 21.0928 2.922C19.3445 2.922 17.6678 3.61651 16.4315 4.85275C15.1953 6.08899 14.5008 7.76569 14.5008 9.514C14.5008 11.2623 15.1953 12.939 16.4315 14.1752C17.6678 15.4115 19.3445 16.106 21.0928 16.106ZM9.30178 27.931C10.1664 27.9417 11.0246 27.7806 11.8266 27.4571C12.6285 27.1337 13.3582 26.6542 13.9735 26.0465C14.5887 25.4389 15.0772 24.7151 15.4106 23.9172C15.7439 23.1194 15.9156 22.2632 15.9156 21.3985C15.9156 20.5338 15.7439 19.6776 15.4106 18.8798C15.0772 18.0819 14.5887 17.3581 13.9735 16.7505C13.3582 16.1428 12.6285 15.6633 11.8266 15.3399C11.0246 15.0164 10.1664 14.8553 9.30178 14.866C7.58326 14.8873 5.94233 15.5849 4.73459 16.8076C3.52686 18.0304 2.84961 19.6798 2.84961 21.3985C2.84961 23.1172 3.52686 24.7666 4.73459 25.9894C5.94233 27.2121 7.58326 27.9097 9.30178 27.931Z" fill="#222222"/>
<path d="M1.198 39.6201H10.049C9.52305 40.2914 8.85144 40.8345 8.08488 41.2084C7.31833 41.5822 6.47686 41.777 5.624 41.7781C4.77163 41.78 3.93018 41.5864 3.16429 41.2123C2.39841 40.8382 1.72849 40.2935 1.206 39.6201H1.198ZM11.001 34.5741H0.229C0.570947 33.4103 1.28033 32.3883 2.25112 31.6611C3.22191 30.9338 4.40199 30.5402 5.615 30.5391C6.82841 30.5385 8.00926 30.9315 8.98038 31.6591C9.95149 32.3866 10.6605 33.4094 11.001 34.5741ZM11.23 36.1631C11.23 37.0211 11.035 37.8451 10.687 38.5751H0.544C0.188615 37.8205 0.00292575 36.9972 0 36.1631C0 35.7971 0.034 35.4411 0.102 35.0931H11.128C11.196 35.4411 11.23 35.7971 11.23 36.1631Z" fill="#EE87B4"/>
<path d="M14.39 47.6219H5.57298C5.71465 47.0437 5.97014 46.4995 6.32453 46.0212C6.67892 45.5428 7.12509 45.1399 7.63698 44.8359H12.335C13.3625 45.4571 14.1041 46.458 14.399 47.6219H14.39ZM14.484 49.3799C14.3507 50.2851 13.9479 51.1291 13.328 51.8019H6.63398C6.01633 51.1278 5.61444 50.2843 5.47998 49.3799H14.484ZM23.09 58.7599C22.8231 59.1747 22.4797 59.5348 22.078 59.8209H17.474C17.0678 59.5371 16.7212 59.1762 16.454 58.7589H23.098H23.089L23.09 58.7599ZM23.675 56.0319H15.852C15.962 55.2339 16.327 54.5029 16.846 53.9339H22.681C23.208 54.5039 23.556 55.2249 23.675 56.0319ZM28.9 62.9299H33.725C33.411 63.2515 33.0356 63.5067 32.6211 63.6804C32.2066 63.8541 31.7614 63.9427 31.312 63.9409C30.369 63.9409 29.511 63.5509 28.899 62.9309L28.9 62.9299ZM34.6 59.8209H28.016C28.101 59.4389 28.254 59.0739 28.458 58.7589H34.158C34.362 59.0819 34.515 59.4389 34.6 59.8209ZM45.27 59.8209H39.815C39.858 59.4389 39.977 59.0739 40.172 58.7589H44.929C45.116 59.0819 45.235 59.4389 45.278 59.8209H45.27ZM53.705 55.7859C53.705 55.8709 53.705 55.9559 53.688 56.0409H49.703C49.6477 55.6096 49.7337 55.1719 49.9483 54.7936C50.1629 54.4153 50.4944 54.1168 50.893 53.9429H52.507C52.8663 54.0985 53.172 54.356 53.3864 54.6836C53.6007 55.0112 53.7143 55.3944 53.713 55.7859H53.705ZM60.637 49.5759C60.6378 49.7569 60.6027 49.9363 60.5338 50.1037C60.4648 50.2711 60.3634 50.4231 60.2354 50.551C60.1073 50.679 59.9552 50.7803 59.7878 50.8491C59.6204 50.9179 59.441 50.9529 59.26 50.9519C59.0791 50.9527 58.8998 50.9177 58.7325 50.8488C58.5652 50.7799 58.4132 50.6786 58.2852 50.5507C58.1573 50.4228 58.056 50.2708 57.9871 50.1035C57.9182 49.9361 57.8832 49.7569 57.884 49.5759C57.884 49.5079 57.884 49.4489 57.901 49.3809H60.62C60.62 49.4409 60.628 49.5079 60.628 49.5759H60.637Z" fill="#222222"/>
</g>
<defs>
<clipPath id="clip0_92_63">
<rect width="303" height="64" fill="white"/>
</clipPath>
</defs>
</svg>
